<mxfile host="65bd71144e">
    <diagram id="n-6rBnhq2B4m-PYw-h08" name="Page-1">
        <mxGraphModel dx="1919" dy="1887" grid="1" gridSize="10" guides="1" tooltips="1" connect="1" arrows="1" fold="1" page="1" pageScale="1" pageWidth="850" pageHeight="1100" math="0" shadow="0">
            <root>
                <mxCell id="0"/>
                <mxCell id="1" parent="0"/>
                <mxCell id="34" style="edgeStyle=none;html=1;exitX=0.5;exitY=1;exitDx=0;exitDy=0;entryX=0.5;entryY=0;entryDx=0;entryDy=0;" parent="1" source="4" target="33" edge="1">
                    <mxGeometry relative="1" as="geometry"/>
                </mxCell>
                <mxCell id="4" value="&lt;span style=&quot;color: rgb(0, 0, 0);&quot;&gt;BP_ApplyGameplayEffectToSelf&lt;/span&gt;" style="rounded=1;whiteSpace=wrap;html=1;align=center;" parent="1" vertex="1">
                    <mxGeometry x="202" y="20" width="270" height="50" as="geometry"/>
                </mxCell>
                <mxCell id="12" style="edgeStyle=none;html=1;exitX=1;exitY=0.5;exitDx=0;exitDy=0;entryX=0;entryY=0.5;entryDx=0;entryDy=0;" parent="1" source="5" target="11" edge="1">
                    <mxGeometry relative="1" as="geometry"/>
                </mxCell>
                <mxCell id="5" value="ApplyGameplayEffectSpecToSelf" style="rounded=0;whiteSpace=wrap;html=1;align=center;" parent="1" vertex="1">
                    <mxGeometry x="207" y="390" width="260" height="50" as="geometry"/>
                </mxCell>
                <mxCell id="14" style="edgeStyle=none;html=1;exitX=0.5;exitY=1;exitDx=0;exitDy=0;entryX=0.5;entryY=0;entryDx=0;entryDy=0;" parent="1" source="11" target="13" edge="1">
                    <mxGeometry relative="1" as="geometry"/>
                </mxCell>
                <mxCell id="11" value="作用域锁 锁定 ActiveGameplayEffects&amp;nbsp;" style="rounded=0;whiteSpace=wrap;html=1;align=left;" parent="1" vertex="1">
                    <mxGeometry x="745" y="386" width="230" height="60" as="geometry"/>
                </mxCell>
                <mxCell id="16" value="" style="edgeStyle=none;html=1;" parent="1" source="13" target="15" edge="1">
                    <mxGeometry relative="1" as="geometry"/>
                </mxCell>
                <mxCell id="13" value="使用&amp;nbsp;GameplayEffectApplicationQueries 检查能否添加 GE" style="rounded=0;whiteSpace=wrap;html=1;" parent="1" vertex="1">
                    <mxGeometry x="700" y="496" width="320" height="60" as="geometry"/>
                </mxCell>
                <mxCell id="20" value="" style="edgeStyle=none;html=1;" parent="1" source="15" target="19" edge="1">
                    <mxGeometry relative="1" as="geometry"/>
                </mxCell>
                <mxCell id="22" value="" style="edgeStyle=none;html=1;" parent="1" source="15" target="21" edge="1">
                    <mxGeometry relative="1" as="geometry"/>
                </mxCell>
                <mxCell id="15" value="将现有的 GE 于将要添加的 GE 的&amp;nbsp;GEComponents 进行对比" style="whiteSpace=wrap;html=1;rounded=0;flipH=0;" parent="1" vertex="1">
                    <mxGeometry x="690" y="626" width="340" height="60" as="geometry"/>
                </mxCell>
                <mxCell id="19" value="" style="shape=image;verticalLabelPosition=bottom;labelBackgroundColor=default;verticalAlign=top;aspect=fixed;imageAspect=0;image=data:image/png,iVBORw0KGgoAAAANSUhEUgAAAp0AAADWCAIAAAAct67vAAAgAElEQVR4Ae2daXcbR36v8yXyQvIikAJFCiS7CTQINPZ9BwkSIAECBAFiaazcLVGiLFkLtVCUHdvKJCeTnEmc5J5x/CYvMkvi5Y7jTGzzO+XNvUFFlRYaBEESILH86vhYherqqn89he6nu9AA/+RPRUmOBAIgcEoCV69ebWUPl8vFI10sAZfL1crUoA4I9BmBP/lTUeqzsWE4IHABBFr0utlstlqtF+u1ge7NarWazeYLeAOgCxDoNgLwerfNCOLpMQItep1lWZfLBbVfzLWG1Wp1uVwsy/bYmwnhgkA7CMDr7aCINgaYQItel8vlLMuazWaXy+VG6iQBl8tlNpsh9QE+KAd96PD6oL8DMP5zEmjd6+fsCLuDAAiAQCsE4PVWKKEOCBxLAF4/Fg02gAAIXAaBt7x+FQkEQAAEQAAEQKCXCbzldRYJBEAABEAABECglwnA6708e4gdBEAABEAABN4mAK+/zQOvQAAEQAAEQKCXCcDrvTx7iB0EQAAEQAAE3iYAr7/NA69AAARAAARAoJcJwOu9PHuIHQRAAARAAATeJgCvv80Dr0AABEAABECglwnA6708e4gdBEAABEAABN4m0H6vBwKBf/iHf/jhhx9+//vf379/f2pq6u0e2/MqnU4fHR0tLi6eqrlEInEkSr/61a9Ylv3ggw++/fbbP/zhD3X5E1uenp6+f//+wsLCiTVRAQRAAARAAAQuhkCbva7X67/99tsvv/wyHo/v7u4eHR0Vi8VOjOQ8Xt/Z2ZmvJY/Hw7LsDz/88Pd///fz8/N1+RPDNhgMR0dHe3t7J9ZEBRAAARAAARC4GALNvH7nzp3nx6Q7d+40jE8QhKOjo7m5ObL1ww8/TCaTSqXyxYsX/7eWHj16xLJstVo9Ojra39//9ttvv/rqq2w2+6//+q9ff/11LBYjO+7t7X399dfffvstsSap/+mnn37//fd/+7d/q9frqdeljf/TP/3Tb3/7W5ZlFxcXj46ONjY2aKjkfj2RSNCS3/zmN+QG/m/+5m/EeZZl62JgWfbBgwdff/31d999d+/ePZZlv//+e7LvcTRoL8iAAAiAAAiAwMUQaOb1QqFwjNafFwqFhvGRe3Sz2WwwGOg98crKynfffbe9vX14eEisTzz90UcfbW9vHx0dffnll4lE4ve///2vf/1rlmVXVlbIffCHH34orv/48eNCofDTTz89efKEel3a+NbW1v/Xrdfrffr06Y8//mgwGGioxOv//M///H9qyeVyBYPBn3766S//8i/dbrc4L40hl8sdHR3dvn37/v37JKqlpaWjo6PDw0OLxUK7QAYEQAAEQAAELpFAM68rlcrNzU2p2jc3N5VKZcOgqdfT6fTvfve7H3/8kXyGPT8/v7W1RbyeyWSI1/1+//T09NHR0ePHj1mW/Yu/+ItvvvmGZdkXL14cHR29evXqs88+Ozo6Wl9fp/VZlv3yyy9//etfU6+zLFvXuMFg+PHHH3d3d//lX/7ll7/8pThO4vXPPvtsr5ZMJhPLsj/99NPBwQGpRvPSGD7++ON///d/n5qaUqvVS0tLJpMJ6/BitsiDAAiAAAh0A4FmXmdZVq1W3759W6z227dvq9Xq40LP5/NHR0fks2qWZX/zm9/86le/2tjY+Pnnn7e2tm7dunV0dCT2ulqtpl7/xS9+8d1337Ese3Bw8PPPP29vb2/VUiAQEHv9H//xH7/66ivqdWnjLMv+8pe//N3vfkf6EocqXYc/zuvSGIjXWZadmpqyWq3T09Pwupgt8iAAAiAAAt1A4ASvsyyr1Wrv3btH1H7v3j2tVtskbp1O980333z11VeJRCKXy33//fd//dd//dlnn/3xj39cWVn58z//86Ojo1wuRz3d0Ourq6tHR0cPHz6MRqO7u7s8z5P6Dx48yOVy//mf/3lwcEC9Lm2cZdlMJnN0dPT999/XXYIQr9Pn5rxe73Fel8ZA1uF3dnb29vaOjo7C4fD09PTPP//8V3/1VzabrQkTbAIBEAABEACBCyNwstdZljUYDB/Vkviz6uNC9Pv9X3zxxQ8//PCHP/zhF7/4hc1mm5+f/+1vf/vdd989evSIfETd3OvkmbV/+7d/+/7777/44gu73U7q/93f/R15dt1kMlGvSxsnyww//vjjJ598Uhck8Tr9ptsXX3xxnNelMUxNTX300UfffPPNd9999+GHH5KWX7x48cc//nF3d7euI7wEARAAARAAgUsh0JLXWZbV1NKlhEifn/f7/a0EYDQaP/roI/HHAa3shTogAAIgAAIg0AcEWvX65Q6V3t+3Eka1Wv2P//gP8oW6VuqjDgiAAAiAAAj0DYHe8Hrf4MZAQAAEQAAEQKCjBOD1juJF4yAAAiAAAiBwoQTg9QvFjc5AAARAAARAoKME4PWO4kXjIAACIAACIHChBOD1C8WNzkAABEAABECgowTg9Y7iReMgAAIgAAIgcKEE4PULxY3OQAAEQAAEQKCjBOD1juJF4yAAAiAAAiBwoQTe8vpVJBAAARAAARAAgV4m8JbX5UggAAKnJHD16tVT7oHqIAACINBBAvB6B+Gi6UEgAK8PwixjjCDQQwTg9R6aLITajQTg9W6cFcQEAgNMAF4f4MnH0NtBAF5vB0W0AQIg0DYC8HrbUKKhwSQArw/mvGPUINC1BOD1rp0aBNYbBOD13pinN1FOTk4aamlycvJN2Rn/5Xk+nU5XaimTyRgMhjM2hN1AoK0E4PW24kRjg0cAXu+VObfb7YIgEA2T/wuCYLfbzxx/KpUSt5bL5UZGRs7cGnYEgXYRgNfbRRLtDCiB03p9bGxsQEld3rDHx8eXlpYqlUosFrNarapaslqtsVisUqksLS2Nj49fXnToGQTaTKD9XmcYJhaLpWrJarW2Od5zN2ez2SYmJs7dDBoAgf8h0LrX0+l0uVxeWVlpyG5ycrJSqZx/cbhh47SQYZh8Pk9ftj3TncfX0tJSsVg0mUzS8ZpMpmKxuLS0JN3UsIRcCohv0xvmo9Fow91RCAIXQKDNXh8ZGUmn00ajUS6X37x5c3V1dXp6+gKG0XoXKysrarW69fqoCQLNCbTudblcrtFojvO62+0ulUoul6t5d+fc2mmvd+HxZbfbK5WKWOqKWqIkTSZTpVJpcUG+Ra/HYjHaPjIgcMEEmnl9e3v7yTFpe3u7YaBqtVp82jIajVqtVi6Xm83mVCqVTqcDgYBcLler1clkcm5uLpPJRCIRg8GQTCZXV1dVKhXZurS0tLCwsLq6Ojc3d+PGjYYtJBKJubm51dXVWCw2OjoqruNwOEg7dXVCoVCpVMpkMjzPy+Vyv9+fTqdXV1ctFkvD4aAQBE4k0C6vp1Ipp9NJDx+1Wp1KpRYXF10ulzgvl8vtdjt53/r9frlcHolEPB6PXC6/ceNGoVBQKpXimOmhRw4KsdfrNjU/Ks9wfInDuMR8Pp9fXFwUB7BQS+KSxcXFji5jiPtCHgQ6TaCZ19Pp9DFaf5JOpxtGZjKZ6g4huVzOsmwul1MoFCMjI0tLSxaLRa1W5/P5mzdv3rhxI5fLzczMyOVym81G9iVbSf1EImG1Wo9rQaFQyOXypaUls9k8NTWVy+Vu3rw5OjqazWYnJydpO7SOXC6n9xNKpZI856JQKJLJJLl6aDgoFIJAEwJt8bpSqcxkMnK5PJvNsixLrkoFQbh582ZdfnR0NBKJjI6O3rhxI5vNKpVKrVZLjke9Xk8vC0jA0oOCel26qflReVx98TEoPr6aELvITRMTE5VKpe4DwaVaEodhtVorlUqLn9CNjo5WKhVBEMQtkDx5Lo/cZki3ogQELoZAM6/fuHGjXC5L1V4qlY6zYEOv22y2ubk5Mh6LxRIOh8n9BymJxWJkiYwW0gyR/fz8fPMWZmZm3G633W7PZrNztZTL5fR6vbgdUkd83hkdHU2lUqFQSK/XHzeci5kD9NLTBNridb/f7/P55HJ5IBDwer3E5alUipARv5PlcjnDMHa73ePx5HI5svKUzWanpqbm5+fJTTnlKT0oqNelm8S9SI/K5vWlxxeN4XIzer2+UqmQhUCFQhGNRpPJZKGWkslkNBol1yUqlapSqej1+hajLdeStHK5XC6VStJylIDARRJo5nXyGfnm5qZY7Zubm+QeomGUDdfhm1s5Go2Sz+M5jiO3HeLzi8ViiUQizVugXo9Go8o3aWxsTNxOw/POyMiIVqudnZ1NpVJQe8MJReGJBNri9Ww2m8/nc7mcIAirq6tNvK5UKvP5vMViIbfpxOter9fv9wuCQCxFY7bb7XUHhdjrdZvEx4v0qJQ2Ja7f8PiiYVxipkNez+fzlUql7qsNY2NjlUoll8td4njRNQjI5fITvC6XyycmJm7fvk3Ufvv27eZLVeS5OfL7DDdv3kyn02q1WryKHovFyDo8vReRnkHoeqBcLo9Go06ns3kL5JwyNTWVzWbJNcfU1FTdmZGed5aXl8mpUKfTLS4ujoyM3LhxQxCETj+HjHdbvxI4v9enp6fp4SCXyzOZjEqlEltTnLdYLOSZrImJiXw+T97MExMTxWJR+hGY9KCgXpduEvciPSqb15ceX10y3Z1Yh5fL5eSb63UnDfKNBvFUdgkEhDFoBE72ulwuVyqVe7VU90hOQ1j0e24rKyv0eTT6hE4gEBgZGWl+BlGr1dlsNhqNrq6uko8Sxc/sSFug5xSLxUK+X7e4uDg6Oiruhdax2+35fF6j0YyMjIRCoUwtkceOGg4HhSDQnMD5vT47O+t2u2kv/loSv3vF+Zs3by4vL6fT6fn5+eXlZbLWRT5gavh7Z3UHBfW6XC6v2yTuRer15vWlxxcdzqVnOvHcXDwep8v7dIBkMT8ej9MSZEDgUgi05HW5XD5eSxcTovj8cjE9ohcQODOBU3n9zL0035HcTOOzpIaU2vs9N9LFwsJCpVIhX/ahnWq12kqlsrCwQEuQAYFLIdCq1y8yOHj9Immjr3MSuHSvm0ymXC6n0+nOOZA+3r2Nv0tDKIVCoUqlUrdAYjQaK5VKKBTqY5IYWk8Q6Eav9wQ4BAkChMClex0TcSKB8fFxsnLe8Hdk4/H4aX9H1u/3N/yZuUqlQn5U4MSQUAEEOkcAXu8cW7Q8EATg9V6ZZofDIf27L3XfDGxxLNPT04VCQar2QqHQbb+w2eKIUK2fCMDr/TSbGMslEIDXLwH6Obps499pPUcU2BUEOkgAXu8gXDQ9CATg9UGYZYwRBHqIALzeQ5OFULuRALzejbOCmEBggAnA6wM8+Rh6OwjA6+2giDZAAATaRgBebxtKNDSYBOD1wZx3jBoEupYAvN61U4PAeoPAqbz+XzyP/0AABFoh0BvHf1dG+ZbXryKBAAh0kkArpzPUAQEQ+C+e7+SB2Odtv+V1tmmanJwkfxN9aGjo3XffvXLlCocEAgNP4OrVq60zwPkaBECgRQKtH1aoWUcAXq8DgpcgcDoCZ/P66fpAbRAYGALU+gMz4vYPFF5vP1O0OFAE4PWBmm4MttME4PXzE4bXz88QLQw0gda9rtfr6TnLiwQCg0TA4XDo9fpWzhT0GGmlMuo0JACvN8SCQhBolUCLXtfr9V6vl56zeCQQGCQCVqvV6/W2onZ6jLR6BKKehAC8LkGCAhA4DYEWve5wOKxWKz1nDdIpHWMFgf8mYLVaHQ7HiccWPUZOrIkKxxGA148jg3IQaIlAi173er286Mvrx53p7XZ7JBJJpVKRSMRutx9XDeUg0IsEvF7viQcVvH4iohMrtMHri4uLpBuaObHXvqmgVqsNBkNvDcdms/VWwF0ebbu87vf79/f3Dw8P7969u7Gxcffu3cPDw/39fb/f34tncMQMAlIC8PrFnM3a4PWLCbQ7e1leXm7lndpVwadSKZ/P11Uh9XQwbfF6Pp8/PDyMRqPkVGg2m0kmGo0eHh7m83npKRIlINBzBFo5W+J+/fznwy7yutFo3NnZOf/t78zMTF0jKysrpVKpWq1ubW2Vasnj8Zyfnc/nW15ePkM7RqMxk8mQSEKhEMdxOp1uZ2eHlJRKpWg0SpttGHzD+m63u1AolEqlfD5vsVg4jmu4L8/z1WqV53naBTLnIXB+r8disSdPnlitVvIZ5Obm5uvXrzc3N2nJkydPYrHYcSdxp9P5+eefOxyO4yq0WL6yslLXyAcffLC/v//8+fNPP/10v5YWFhZabK1JNZfLtbe3RxpcXV1tUvM8m1wu1+Hh4WlbsNlsn3/+OYltf3+/UqnwPB+Pxw8ODra2turyrTQupcrzvNPpJASePHmSTCZbaeci6zSMuS0BwOvnOdW0vm8bvE6X32mm9e7FNcPh8Pb29vz8vLjwDPlisWi326U7OhyOQqEgLT9zST6ft1qtp919enq6XC6TO2atVlsqlVwul06n297ebtJUXfDS+hqNZnNz02g0chzndDqr1SptrW5fjuPi8fjs7CytgMx5CJzT6zab7eXLlz6fz2AwZLPZTz755PWb9Mknn2SzWYPB4PP5Xr58abPZGp5b8/n8p59+ms1mG25tvfDx48czMzPS+qFQ6NGjR9Lys5Xo9fqnT5+SyxSz2by/vz83N3e2pprvdWavf/rpp3Utf/TRR4uLi6RQnK+r1vCllCohQNZmLBbL06dPZ2dnG+57WYXSmNsVCbx+nlNN6/u2wet1ne3t7R0ck/b29uoqi1+WSqW5ublisUgLFxcXy7UUDAZJobQkEAiIb3wTicTW1lalUnG5XLQdkpHqbXZ2tlQqlctlekUyOztbrVbz+XwikYhEIhzHSXskrel0uo2NDdoFDSMajarVarvdns/nl5eXy+VyJpPRaDS0pt1uL5VK9KXT6bTZbFJP0wokUxe8tL5Op9va2tJqtaS+z+dTq9UN9+U4zuv1ZjKZui7w8mwEzun1fD5PbgqdTufu7u4bp//Pv7u7u06nk+f5SqVy3Gr8/v7+6urq48eP6cm3VCo9raXl5WVSKC2Jx+P7+/tPnz5Np9M8z29sbHz66afPnz+fn5+n7ZCM1OupVGp/f//Zs2elUonUSaVSz58/f/DgwebmpiAIPM9LeyQ1Z2Zm9vf3aRdzc3PBYJDn+bo2Z2ZmHj16tL29/fz581u3bi0uLj569Ojp06f0aYO6+GdmZj788MPd3d1nz55tb2/r9Xqx1+sav3XrFgnSYDB88sknPp+PxmOz2eq8vra2RsiEQiFxnty7ixnyPJ9MJklJJpM5jurMzIx4sqLRKLmyoSOqVCo6na45Ael4xfHQFh48eLC1tfXs2bO9vT2j0SiuQ+Z9Zmamrk6Td8LCwkLD9ZXV1dUWF3JO63WPxzM3Nyc9MOfm5tqy5iptuT9K2u/1Uql0jNYPxD6rw2exWCqVilqtrlarJpOJ4ziLxbK2tqZWq3U6XaFQmJ6elpaYzea1tTWe5zUaTbVaJXerLd6vazSaVCql0Wimp6er1arFYjEYDBsbG3q9Xq1W53K5SCQi7ZGGbbPZ6CWIyWRaW1vT6XRqtTqbzQYCAbvdvr6+rtPpOI7L5XKBQIDu6PP5qFPVbxJZV4+9SdJveUq9vrOz86Z6jNQPh8PVajUSiRCAtMe6fTmOs1qtTeaC7ohMKwTO6fXd3d1IJMLz/MOHD30+Xzgcfvbs2evXr589exYOh30+38OHD3meX1hYuH37NtUPzfh8vufPn+t0uhcvXng8Hp7nvV7vy5cvdTqd1Wp99OiRwWCQlng8npcvX1osFqPR+OLFC3LpcNxdWp3XjUbj7du3jUajwWA4ODjw+XwOh+Pjjz8ml6f3798XBEHaIw04Go3u7e3xPK8TJWmbMzMzr169IkflwcHB+vo6z/MrKyu7u7s8z0vjJ/WtVqter3/w4EEymaRelzY+Pz9Pri0WFhbEiuV5nqzDV98k8pWER48e0UUFmpfG4PV6Dw4OzGaz0Wh8/vy52+3meV5KNRaLkVFQJnREVqtVp9N9+OGHiUSiOQHpeEk80hZoSTwel8ZM2yH9xuPxhjGTUFOp1OvXr8vlsjjycrn8+vXrVColLjwuf1qvz87O7uzsiD+X5DguGo3u7OxgxbHJ2akNXqc3uyQzPT29vb0tVfv29vb09PRxoSwuLi4sLJA5IzfKGo2mWCwmEgmPx0N2lJaQ2+vlWlpbWyNXcC16neM4k8kUCoXC4fDa2prL5fL5fKurqyTCWCwWiUSkPdL4nU6nIAjk5ezsLP2gPRgMJpNJ8U350tKS+MMF6nW73V4sFtfX1xcXF8n9t/tNorfdtLs6Nx9X32g0zs/PV6tVcY91+5KBr62t0caROQ+Bc3qdLrC/fv36888/X19ft1qt0WjUarWur69//vnnr1+/Jr55+fKl9HRZKpWKxSLP8+VymdyDmkymJ0+ebG5uLiws6PV6nuelJalU6sWLF1u19PLlS3KzJTUQ6a7O6zzPu93udDotCMLBwcH8/HwsFrtz5w6pXK1WBUGQ9kgjp16fnZ19/Pjx4eEhuemva1N8W7+3t0fW7WmhNH66ieh/Z2eHel0aMLkM8nq9Ozs7dTegNpvts88+i7xJJpOJ53nqcnFeGkMqlSKfwfM8T65IGjqyoddTqdT29jahlEgkdnZ2xCOSEhBvXVlZ2dnZad7C2tpaLpeTxixuh9RpGDOdvkqlIlY7kTpZcKJ1mmRO63Vqcap2InX68jxHbh/v2wavS+lotdo7d+6I1X7nzh2pq8Q7VqvV9fX1tbW1jY2NcrlMNqnVaqfTGY/Hi8UiUXtdyezs7OrqquVNIl206HWLxbK+vh4MBp1OJ/mQOxAIpFIp0jXxOsdxdT3SmM1mM41T7PVAICD1ejgcpjuKlc9x3MLCAvU6rSPN1LlZug5vMBjoUwU8z29vb1PgdftyHGe32+lFibQvlJyKQBu9ThbfX716xfP8q1ev6Jr8cV4nfnr16tXBwcGrV6+ePXtGTqk6nW5ubm5jY+PJkycGg4HcHItLUqnU3bt3fW8Sefy+Ra/7fL7Dw8NEIjE3N7e/vz8/P59IJOhaAvG6tEd6rheLhOd58qSntE1xNWq1YDD49OlTsmhfF7+4PomHel3aOM/zgiCUSqVXr16RhxNpeNJ1eLHLxXkpQ7HXaYNSqnXr8LFYbH5+vs7KH3zwgXhEUgLirWS8zVtYW1vL5/PSmMXtkDrNvU4+Enr9+jX59PP169etS50sJp14cEmfhycuX6wl6e37iQ0OYIWOeJ3jOIPBcP/+faL2+/fv1z2gXgfa4XCIl4UrlYrVaiXX72q1enp6emNjw2g0SkvMZjN9tNtsNpNmBUFwu911XXAcV6e3YDBI1sMNBsP6+rrL5TKbzWS5jyynRyIRaY+0WY1Gs7GxQT44J+vwPM+r1epMJhMMBsXyXlpaEnt9enq6VCrRJwaSyeTCwoLU07QjkqkLXlrfYrFUq1WyIG8ymTY3N+nqSN2+HMfNzMwkEom6LvDybATO6fU7d+6Ew2Ge56nFyQ163ctwOEzviakzZmdnxZ9VP3/+3O/3h8Ph3d1dnU5nMBhevXrldDqlJXTFmJxqSYMPHz4kkdD2Sabufj2RSJCFdIfDcXh4OD8/7/V6Dw8PzWazTqe7d++eIAjSHmmber1+f3+ffPBPPn4iy3J1bYp9I7WaNP6ZmZnDw0OLxaLT6e7evZvJZKjXpQHzPO9wOP7sz/5Muh7eutelMXi93hcvXphMJoPB8OjRI7IOL6Uqfm7ObDY/ffp0ZmbG4/EcHByQNfO9vT2yDk8nV0pAOt7mLRBnS2MWc6Zel8ZMp49kqtUqeX+eSupn9jrHcbFYbKeWcKfeymmqDV6vW4envVoslke1RL5zRculmXg8Ljbf4uIiefoskUiQz7nIVrVaXVfCcVwwGCRLkel0mlg2FAqtr69Lf7CwTm/0mj2ZTAqCQB5QJ4vYgiDk8/lwONywRxr/8vIy/SK49Lk5eqVS53Vy0ZNOp8kFr/gER7/nJpVuXfB133Mj9X0+X6FQKBaLhUJBfGVTty/HcZlMht7c0+EgczYC5/S6IAjk5Pjxxx9Tl4s1//HHHx/33Nz6+rr4YTryECh5ovNFLZGt0hKe55eXl/f39588ebK7u0tWm9Pp9OHhYSgUqjuJ13ndYrE8fPjw6dOnOzs7Dx8+JM9153K558+fP3z48MGDB/l8vmGPtFmHw3Hnzh3yfNn29jZZbqtrU+wbqdWk8c/MzBwcHNy9e/fZs2fk43/q9YYBkztv+pQ7ja3ue24bGxvie/S6vJQhfW6OLu83pOp0Ou/du7e/v//48eNEIkF6lz4319zrdeMVPxNHn5ujLVBn18Us5kzrNIyZIiKZTC3VFZ748gzr8PSonKsl+hKZJgTa4PUmretrqUmFbttErgzI/Tp19nFBGo1G8kDfcRW6s9xut6fT6e6MrRejOqfX6ffczGbzxsYGUTv1+sbGhtlsbv49txNPphdQgTxrTe7Xm3zVvnORiP3USi/k7pY8f9BK/W6rc9rxdkn85/F6L54cLivmznr9skZ15n6j0Si5aY7H4/R7Yk1a83g8PfdYJrk/aDIobDoVgXN6ned58e/S+P1+8mXxR48eke90Wa3W5r9L0w2n7HK5vF9LGxsbOp3u4kM6ledisdjLly/J1xAuPtS29Hiq8balx7Y0Aq+f6txy5spt8Ppx6/Bnjgk7gkAPETi/13mez+fzL1++pL8jS8+h+B1ZigKZPiAAr1/Mma0NXr+YQNELCHQngbZ4ned5/N2XPvAWhtCcALx+MSexM3r9vffeu3LlysWEiF5AoJsJtMvr5ISIv9PaXAzY2tME4PWLOZXB6xfDGb30LYEWve5wOKxWK/1ubk+fnRE8CJyBgNVqlX5NSXpeoMeIdBNKWiQAr7cICtVAoDGBFr2u1+u9Xi89Z53htIhdQKB3CVitVq/XK/2FbOlBRY8R6SaUtEgAXm8RFKqBQGMCLXqd4zi9Xhmv9YkAABp0SURBVE/PWV4kEBgkAg6HoxWpcxxHj5HGxxtKWyAAr7cACVVA4HgCrXsd56zjKWILCPwPAXj9/G8FeP38DNHCQBM4m9fpyQsZEACBhgQG+rRyvsHD6+fjh70HngC83vCkjEIQOCeBgT+1nB3AW16/igQCINBJAuc802F3EBgcAp08EPu87be8Lm+arl+/PjQ0dO3atffee++dd965cuXKWNM0Ojoql8uHhobef/99Ul+BBAJ9R+Dq1at9NyYMCARAoIcJwOs9PHkIvRsIwOvdMAuIAQRAgBKA1ykKZEDgLATg9bNQwz4gAAIdIwCvdwwtGh4MAvD6YMwzRgkCPUMAXu+ZqUKg3UkAXu/OeUFUIDCwBOD1gZ16DLw9BOD19nBEKyAAAm0iAK+3CSSaGVQC8PqgzjzGDQJdSgBe79KJQVi9QgBe75WZQpwgMCAEetLrHMetr6+rVKpzTpLb7SaNRKPRbDYrCEK1Ws3WksViOWfj2H1ACMDrAzLRGCYI9AqBnvR6IBBYW1vz+/3npJzJZPR6PW3EYDCsrq7Sl8iAQCsE4PVWKKEOCIDAhRG4TK/funXr6THp1q1bTRBks1mv15vJZGidUCiUqyWn00kKpSUOhyObzeZyOa/Xq1AoIpFItVoVBMFkMpFdpF73eDzZbDafz8/OzpI6brdbEIRUKhWJRILBoEKhkHZEo0JmEAjA64MwyxgjCPQQgcv0ei6XO0brT3O53HEQtVqtIAgKhaJQKExPTysUCo1GUywWx8fHp6amVldXJyYmpCXT09PFYpFl2cnJyUKhwHGcQqFofr8+OTm5tLQ0OTk5MTFRKBS0Wq1KpSqXy0qlcnx8fGVlJRgMSjs6LmyU9ysBeL1fZxbjAoEeJXCZXp+YmFhbW5OqfW1tbWJi4jigoVBoZmaG3CiTO+bJyclsNhuJRCwWy/j4uEKhkJZ4PJ5CobBQS8VikXx83tzrCoVCrVZ7PJ5gMFgoFEwmk91uj8fjJLC5ublgMCjt6LiwUd6vBOD1fp1ZjAsEepTAZXpdoVAwDLOzsyNW+87ODsMwTWgKglAqlQqFQqlUyufzpOb4+LjRaAyHw9lsllwT1JV4PJ5EIqF9k0gXzb2u1WpLpZLT6TQajdls1mQyOZ3OWCxGeiReVygUdR01iRyb+pIAvN6X04pBgUDvErhkrysUCpVKdffuXaL2u3fvNn/KXa/XZ7NZilsQBK1Wazab4/H4+Pj4xMREuVzmOE5aotFoCoUCy7Jk3Z60kE6nzWYzba3u83Wn07m8vEwiLJVKJpOJrLqzLDs+Pp5MJoPBoLQj2hoyA0IAXh+QicYwQaBXCFy+1xUKhVarvV9LGo2mObhwOBwIBGid2dnZUCg0Pj4eiUSEWiJbpSUKhcLpdGaz2UwmE4/HJycnFQqFx+MplUoGg4E0WOd1lmXT6XQul1tcXEyn0zabTaFQ+P1+QRDS6XQqlQoEAg07ouEhMwgE4PVBmGWMEQR6iEBXeF2hUChrqfvBkQsChUKRTCaJ6bs/ZkTYUQLwekfxonEQAIHTEugWr5827suqHwqFyA/XhMNh8ozeZUWCfruEALzeJROBMEAABAgBeB3vBBA4FwF4/Vz4sDMIgEC7CcDr7SaK9gaMALw+YBOO4YJAtxOA17t9hhBflxOA17t8ghAeCAwaAXh90GYc420zAXi9zUDRHAiAwPkIwOvn44e9B54AvD7wbwEAAIHuIgCvd9d8IJqeIwCv99yUIWAQ6G8C8Hp/zy9G13EC8HrHEaMDEACB0xCA109DC3VBQEIAXpcgQQEIgMBlEnjL61eRQAAEQAAEQAAEepnAW16XN03Xr18fGhq6du3ae++9984771y5cmWsaRodHZXL5UNDQ++//z6p3/wCZmxs7MaNG8PDw9euXXv33XevXLnCIIFA1xO4evVq18eIAEEABAaIALw+QJONoXaCALzeCapoEwRA4MwE4PUzo8OOIPDfBFr3OsuySqVS1fVJqVSyLIvZBQEQ6FEC8HqPThzC7hYCLXqdZVmVSqVQKGRdnxQKhUqlgtq75R2GOEDglATg9VMCQ3UQeJtAi15XKpU9IXVy1UH+dPLbA8UrEACB3iAAr/fGPCHKriXQotdVKlXX36i/FaBKpepa5ggMBECgCQF4vQkcbAKBkwnA6yczQg0QAIELJACvXyBsdNWPBOD1fpxVjAkEepgAvN7Dk4fQu4EAvN4Ns4AYQAAEKAF4naJABgTOQgBePws17AMCINAxAv3vda1Wm0qlBEHI5/M+n+8MJM1msyAI4h01Gk06nRaXtJiPRqOBQIBWjsfjgiAUi8WNjQ2hlhwOB92KTE8QaIvX5XJ5IBBwvkk8z7/1DFtrL1Qq1cjISGt1T66F5+Z64u2HIEFASqDPvc6yrCAITqeTYRiO4wqFgtlsllJoXiL1evP6TbbWeZ3UtFgs2Wy2yV7Y1M0E2uV1v99/smyb1nA4HG38Kh283s3vOsQGAk0I9LnXzWZzPp+n43c6nVarlWEYj8dD7o/D4TDLsmazOZvNLi0tFYvFRCLhdDpzuVyhUDAYDAzDmM3mUqmUTCYLhcLS0tLU1JRWq61UKmRTJpOJxWKFQiGVSimVSnHj9NZ8ZmamVCqtrq5mMhlaSKOSet3v9wuCUCgU5ufnSTW/318sFldXV6PRaCgUYhhmfn6+UEter5c2hczFE+iQ1xUKhcPhMBqNbrfbZDIxDONwOFwu182bN2UymUKhsNlsZrPZ5XIZjcahoSG9Xu/3+91u98TEhMlk0mg0MplsaGjI5/ONjY01vR5ovFHsdYfDEQwGpWyDwSBWmKRYUAICl0ugz73ucrmSyWQdYp1OVy6X1Wo1y7LpdNrj8ZjN5kqlwnHc1NRUuVxeXFxkGMbn85F9zWbz2tqaRqMh9X0+n9jrlUpFrVYzDJNOp91uN2mc4zilUlkqlbRarU6no4234nWlUplIJJRK5dTUVKlUMhgMGo2mWq1OT0+TAEKhkF6vL5fLLMuq1epcLjc1NVU3Rry8MALt8nogENC9SSMjIwqFwuv1Xr9+fXh42OPx6PV6mUymUqnMZjPxutfrJX9XyWazKZVKmUxG79cnJiacTqdMJiNXA429fVKp2Ot+v39rayscDouphsPhra0tv98vLkQeBEDg0gkMotf9fn8sFiPoPR5PPB4Xr7SnUimXy8UwjMlkIh+ri7d6vd54PC72Ov3ofWFhYXZ21u/3l0qlWC2Vy2WHw+H1epeWlkh3La7D8zwfCARCoVC5XLbZbOKrk0gkEgqFlEplPp+PRqMOhwNSv9yjqI1en3yThoeHFQoFcbNMJrNarSzLEp2TQvFWlUplNBrFXpfJZG63e2xszGg0chx3ksEbbxd7nWEYYnGq9rqXlzsF6B0EQEBMoM+9bjKZxOvwLpfLarU29/rKygr1eqFQIIvtVN5utzuZTDb3+srKiuFNUqlUfr8/Go0S6K143WAwVCoVj8djtVoFQbDZbB6PJ5FIkBaI1xmGYVnWarUuLi7m83moXfyevuB8u7xe9/m62NwWi4V63eVyiQUvk8mUSqXJZKrzukaj0Wq15J6+sbdPKq3zOlX7fC1Jb98vGDu6AwEQOI5An3u97rk5QRDMZrN4HT6VSpF1eGruhl4ny+AMwyQSidnZ2SZe1+v1pVKJ4ziGYfR6PbnvLxaL5G9ktbIO7/F4UqkUwzAajaZSqdhsNr1eT1by6Tq8zWZLJpMsy05NTVWrVa1We9wEo7zTBC7L62SVXiaTWSwWtVotk8nsdvvk5CTx9cjIiM/nI4v2Jxm88Xap1xmGiUQiW7UUiUQ6DRbtgwAInI1An3udYRjx99w8Hg/BRJ+bi0Qi5Lm55l5PpVLJ2nNzy8vLSqWyidcZhvF6veRrdclkkjxJNzc3VywWM5lMPB4/8bk5juOy2awgCEtLS9lsliwezM7OFovFbDa7uroaCoVYlo1Go6VaIo/RnW36sdf5CbTL6+Lvuen1+hPv1z0ej8VicblcJpNpeHhYJpNxHOf1esfHx4moyRNtjaXdQmlDrzMME6yl83NDCyAAAh0i0P9e7xC4C26WXB+Q+3Vi+gsOAN0dR6AtXm/Bs29VEVv/rQ1vXoyOjno8nqGhoTcFp/73OK8fxwHlIAACXUIAXu+SiTghjHA4TL6Yt7i4iD+MfQKsi93chV5nWdbj8dA1+VMrvbYDvH6x7yP0BgJtIwCvtw0lGhpMApfi9bOp+lR7weuD+X7GqPuAALzeB5OIIVwmAXj9MumjbxAAAQkBeF2CBAUgcBoC8PppaKEuCIBAxwnA6x1HjA76mwC83t/zi9GBQM8RgNd7bsoQcHcRgNe7az4QDQgMPAF4feDfAgBwPgItel2pVLbxj62d6gm4M1RWKBTkq5XnY4O9QQAELoEAvH4J0NFlPxFo0essy6pUqp5Qu0KhUKlU+DplP71LMZaBIgCvD9R0Y7DtJ9Ci18lP+iuVSlXXJ/Kbx+0nhRZBAAQuhAC8fiGY0Un/Emjd6/3LACMDARDoIgJvef0qEgiAAAiAAAiAQC8TeMvr8qbp+vXrQ0ND165de++99955550rV66MNU2jo6NyuXxoaOj9998n9RVN09jY2I0bN4aHh69du/buu+9euXKli65/EAoIHEMA9+vHgEExCIDA5RCA1y+HO3rtGwLwet9MJQYCAv1BAF7vj3nEKC6NQOteZ1kWz81d2jyhYxAYGALw+sBMNQbaGQIteh3fc+sMfrQKAiBQTwBeryeC1yBwKgIteh2/S3MqqqgMAiBwZgLw+pnRYUcQ+G8CLXpdpVKd4XffLnEX/J1WvL9BoEcJwOs9OnEIu1sIwOvdMhOIAwRAoEYAXscbAQTORQBePxc+7AwCINBuAvB6u4mivQEjAK8P2IRjuCDQ7QTg9W6fIcTX5QTg9S6fIIQHAoNGYCC8rtVqNzc3NRqNdHaj0WggEBCXS0vEW0m+lTrSvVDSlwTa4nW5XB4IBJxvEs/zZ3hiTqVSjYyMnGHHhrvgubm+fLtiUINAYCC8Pjs7u7GxMTMzI51RqaGlJa3sJa2DkgEh0C6v+/3+hn5tvdDhcLTx78DC6wPyBsYw+4/AQHhdEIRgMJjL5ej8zczMlEql1dXVTCZD7telJR6PR6glekMvrUMbRGZgCXTI6wqFwuFwGI1Gt9ttMpkYhnE4HC6X6+bNmzKZTKFQ2Gw2s9nscrmMRuPQ0JBer/f7/W63e2JiwmQyaTQamUw2NDTk8/nGxsZavzigNcVedzgcwWBQOsXBYNDhcEjLUQICIHCJBPrf6waDoVgssixbKpV0Oh3DMDqdrlKpcBw3NTVFvN6wpFwucxynVCpLpZJWq5XWucRpQ9fdQ6BdXg8EAro3aWRkRKFQeL3e69evDw8PezwevV4vk8lUKpXZbCZe93q95O8q2Ww2pVIpk8no/frExITT6ZTJZORqgKr6VBmx1/1+/9bWVjgcFmMPh8NbW1t+v19ciDwIgMClE+h/r8/Pz8/NzTEMEw6HQ6EQwzBer3dpaYmgJ6vu0hK/318qlWK1VC6XHQ6HtM6lTx4C6AYCbfT65Js0PDysUCiIm2UymdVqZVmW6JwUireqVCqj0Sj2ukwmc7vdY2NjRqOR47hT6ZxWFnudHD5itROp15m+G6YDMYAACPS/10ulUqVSKZfL1Wq1UCgwDOP3+6PRKJl74vWGJSsrK4Y3SaVSSevg3QMC7fq9OblcXvf5utjcFouFet3lcokFL5PJlEqlyWSq87pGo9FqteSenqr6VJk6r1O1z9eS2PF4G4AACHQVgT73utlsFgSBEi8WiwaDwWQyFYtFpVLJsixZh5eW6PX6UqnEcRzDMHq9nmEYaR3aLDKDTKBd9+un9TpZpZfJZBaLRa1Wy2Qyu90+OTlJ5D0yMuLz+cii/al0TitLvc4wTCQS2aqlSCQyyJOOsYNANxPoc68vLi7Ozs7SCZifnycrh3Nzc8ViMZPJxONx8lictMTr9QqCkM/nk8mkUqlkGEZah7aMzMASaJfXxd9z0+v1J96vezwei8XicrlMJtPw8LBMJuM4zuv1jo+PEzeTJ9qop0+baeh1hmGCtTSw042Bg0D3E+hzr3f/BCDCXifQFq+fVrpi6zfcd3R01OPxDA0NNdzaSuFxXu/1+UL8IND3BOD1vp9iDLCzBLrQ6yzLejweuibfisWldeD1zr5v0DoIdIwAvN4xtGh4MAhcitelGm57Cbw+GO9fjLIPCcDrfTipGNJFEoDXL5I2+gIBEDiRALx+IiJUAIFmBOD1ZnSwDQRA4MIJwOsXjhwd9hcBeL2/5hOjAYGeJwCv9/wUYgCXSwBev1z+6B0EQKCOALxeBwQvQeB0BFr0ulKpbOMfW2v7U3J1DSoUCvKbDadjgdogAAJdQABe74JJQAi9TKBFr7Msq1KpekLtCoVCpVKxLNvL04LYQWBwCcDrgzv3GHlbCLTodYZhWJZVKpWqrk/kJ5bbAgeNgAAIXDwBeP3imaPHviLQutf7atgYDAiAQLcSeMvrV5FAAARAAARAAAR6mcBbXpc3TdevXx8aGrp27dp77733zjvvXLlyZaxpGh0dlcvlQ0ND77//PqmvaJrGxsZu3LgxPDx87dq1d99998qVK916MYS4QOB/CeB+/X9ZIAcCINAFBOD1LpgEhNDLBOD1Xp49xA4CfUgAXu/DScWQLpJA617Hc3MXOS/oCwQGlgC8PrBTj4G3h0CLXsf33NqDG62AAAicRABeP4kQtoNAUwIteh2/S9OUIjaCAAi0jQC83jaUaGgwCbTodZVKVfebbl3+En+ndTDfzxh1HxCA1/tgEjGEyyQAr18mffQNAiAgIQCvS5CgAAROQwBePw0t1AUBEOg4AXi944jRQX8TgNf7e34xOhDoOQLwes9NGQLuLgLwenfNB6IBgYEn0OdeV6vVm5ubgiDk83lBENxu96XMeDQaDQQCl9I1Ou00gbZ4XS6XBwIB55vE8/wZnqpTqVQjIyNn2LHhLnhurtPvHLQPAh0i0P9e39jYIOymp6er1SrHcR1C2aRZeL0JnF7f1C6v+/3+hn5tvdDhcLTx78DC673+zkT8A0tggLzOMEy5XNbpdAzDeDweoZbIbbTZbM5ms0tLS8ViMZFIOJ3OXC5XKBQMBgN5Z9D64XCYZdmFhYXZ2VmyqVQqNWyTYZiZmZlSqbS6uprJZHC/3q/HWIe8rlAoHA6H0Wh0u90mk4lhGIfD4XK5bt68KZPJFAqFzWYzm80ul8toNA4NDen1er/f73a7JyYmTCaTRqORyWRDQ0M+n29sbKz1iwNaU+x1h8MRDAalMxgMBh0Oh7QcJSAAApdIoP+9vrm56fP5/H5/PB5fWVlhGEan05XLZY7jlEplqVTSarVms7lSqXAcNzU1VS6XFxcXGYbx+XzJZJLWV6vVLMum02mPx2M0GnO5HMMwNCNtU6fT0Tbh9Ut8i3e663Z5PRAI6N6kkZERhULh9XqvX78+PDzs8Xj0er1MJlOpVGazmXjd6/WSv6tks9mUSqVMJqP36xMTE06nUyaTkasBqupTZcRe9/v9W1tb4XBYDDMcDm9tbfn9fnEh8iAAApdOYCC8Hq2lfD4fjUYZhvH7/aVSKVZL5XLZ4XCYzWZBEMhkpFIpl8vFMIzJZCKFfr8/FouRrR6PJx6PMwxTKBS0Wu3c3By5j5G26fV6l5aWyF5Yh7/0N3rnAmij1yffpOHhYYVCQdwsk8msVivLskTnpFC8VaVSGY1GsddlMpnb7R4bGzMajRzHnUrntLLY6wzDEItTtde97BxetAwCIHBaAv3vdfr5ulKpXFtb02q1fr9/ZWXF8CaReyDq9ZWVFer1QqFArgOkXg+FQjMzM/l8fnp6mtSpa9Pv95PLCIZh4PXTvi97qH67vF73+brY3BaLhXrd5XKJBS+TyZRKpclkqvO6RqPRarXknp6q+lSZOq9Ttc/XkvT2vYemDKGCQH8TGCCvk5tso9Go1+tLpRJ5gE6v1zMMI75fl3qdrLGTdfhUKuXxeBiG0Wq1xWIxnU6T94e0TZPJVCwWlUoly7JYh+/jo+iyvE5W6WUymcViUavVMpnMbrdPTk4SeY+MjPh8PrJofyqd08pSrzMME4lEtmopEon08ZxiaCDQ0wQGy+vUyl6vl3z5LZlMKpXK5l4XP2cXiURYliVTnslkvF4vnf66NhmGmZubKxaLmUwmHo/juTkKqs8y7fK6+Htuer3+xPt1j8djsVhcLpfJZBoeHpbJZBzHeb3e8fFx4mbyRBv19GkzDb3OMEywlvpsEjEcEOgnAn3u9X6aKoylOwm0xeunla7Y+g33HR0d9Xg8Q0NDDbe2Unic17tzFhAVCIAAJQCvUxTIgMBZCHSh11mW9Xg8dE2+FYtL68DrZ3k3YB8Q6AIC8HoXTAJC6GUCl+J1qYbbXgKv9/K7ErEPNAF4faCnH4M/PwF4/fwM0QIIgEAbCcDrbYSJpgaRALw+iLOOMYNAFxOA17t4chBaLxCA13thlhAjCAwQAXh9gCYbQ+0EAXi9E1TRJgiAwJkJwOtnRocdQeC/CbTodaVS2cY/ttb2p+TqGlQoFEqlEhMMAiDQiwTg9V6cNcTcRQRa9DrLsiqVqifUrlAoVCoV/f2lLmKNUEAABFogAK+3AAlVQOB4Ai16nWEYlmWVSqWq6xP58ePjR4wtIAACXU0AXu/q6UFw3U+gda93/1gQIQiAQB8QeMvrV5FAAARAAARAAAR6mcBbXpcjgQAInJLA1atXT7kHqoMACIBABwnA6x2Ei6YHgQC8PgizjDGCQA8RgNd7aLIQajcSgNe7cVYQEwgMMAF4fYAnH0NvBwF4vR0U0QYIgEDbCMDrbUOJhgaTALw+mPOOUYNA1xKA17t2ahBYbxCA13tjnt5EOTk5aailycnJN2Vn/Jfn+XQ6XamlTCZjMBjO2BB2A4G2EoDX24oTjQ0eAXi9V+bcbrcLgkA0TP4vCILdbj9z/KlUStxaLpcbGRk5c2vYEQTaReD/ATYwIyTyuUFMAAAAAElFTkSuQmCC;flipH=0;" parent="1" vertex="1">
                    <mxGeometry x="1135" y="542.5" width="709.64" height="227" as="geometry"/>
                </mxCell>
                <mxCell id="24" value="" style="edgeStyle=none;html=1;" parent="1" source="21" target="23" edge="1">
                    <mxGeometry relative="1" as="geometry"/>
                </mxCell>
                <mxCell id="21" value="检查新 GE 是否设置了要修改的属性" style="whiteSpace=wrap;html=1;rounded=0;" parent="1" vertex="1">
                    <mxGeometry x="695" y="766" width="330" height="60" as="geometry"/>
                </mxCell>
                <mxCell id="26" value="" style="edgeStyle=none;html=1;" parent="1" source="23" target="25" edge="1">
                    <mxGeometry relative="1" as="geometry"/>
                </mxCell>
                <mxCell id="30" value="是" style="edgeLabel;html=1;align=center;verticalAlign=middle;resizable=0;points=[];" parent="26" vertex="1" connectable="0">
                    <mxGeometry x="-0.0396" y="1" relative="1" as="geometry">
                        <mxPoint as="offset"/>
                    </mxGeometry>
                </mxCell>
                <mxCell id="28" value="" style="edgeStyle=none;html=1;" parent="1" source="23" target="27" edge="1">
                    <mxGeometry relative="1" as="geometry"/>
                </mxCell>
                <mxCell id="29" value="不是" style="edgeLabel;html=1;align=center;verticalAlign=middle;resizable=0;points=[];" parent="28" vertex="1" connectable="0">
                    <mxGeometry x="0.0039" relative="1" as="geometry">
                        <mxPoint as="offset"/>
                    </mxGeometry>
                </mxCell>
                <mxCell id="23" value="是否是&lt;div&gt;立即执行事件&lt;/div&gt;" style="rhombus;whiteSpace=wrap;html=1;rounded=0;" parent="1" vertex="1">
                    <mxGeometry x="815" y="856" width="95" height="99.13" as="geometry"/>
                </mxCell>
                <mxCell id="77" style="edgeStyle=none;html=1;exitX=0.5;exitY=1;exitDx=0;exitDy=0;entryX=0.5;entryY=0;entryDx=0;entryDy=0;" parent="1" source="25" target="76" edge="1">
                    <mxGeometry relative="1" as="geometry"/>
                </mxCell>
                <mxCell id="25" value="ExecuteGameplayEffect&lt;div&gt;立即执行 GE&lt;/div&gt;" style="whiteSpace=wrap;html=1;rounded=0;" parent="1" vertex="1">
                    <mxGeometry x="776.25" y="1054.7" width="172.5" height="51.31" as="geometry"/>
                </mxCell>
                <mxCell id="43" value="" style="edgeStyle=none;html=1;" parent="1" source="27" target="42" edge="1">
                    <mxGeometry relative="1" as="geometry"/>
                </mxCell>
                <mxCell id="72" style="edgeStyle=none;html=1;exitX=0.5;exitY=1;exitDx=0;exitDy=0;" parent="1" source="27" target="76" edge="1">
                    <mxGeometry relative="1" as="geometry">
                        <Array as="points">
                            <mxPoint x="1164" y="1260"/>
                        </Array>
                    </mxGeometry>
                </mxCell>
                <mxCell id="27" value="ActiveGameplayEffects.ApplyGameplayEffectSpec&lt;div&gt;添加到 GE 的容器中&lt;/div&gt;" style="whiteSpace=wrap;html=1;rounded=0;" parent="1" vertex="1">
                    <mxGeometry x="1005" y="880.3499999999999" width="317.5" height="50.43" as="geometry"/>
                </mxCell>
                <mxCell id="35" style="edgeStyle=none;html=1;exitX=0.5;exitY=1;exitDx=0;exitDy=0;entryX=0.5;entryY=0;entryDx=0;entryDy=0;" parent="1" source="33" target="5" edge="1">
                    <mxGeometry relative="1" as="geometry"/>
                </mxCell>
                <mxCell id="37" value="" style="edgeStyle=none;html=1;" parent="1" source="33" target="36" edge="1">
                    <mxGeometry relative="1" as="geometry"/>
                </mxCell>
                <mxCell id="33" value="ApplyGameplayEffectToSelf" style="rounded=0;whiteSpace=wrap;html=1;" parent="1" vertex="1">
                    <mxGeometry x="204.75" y="190" width="264.5" height="60" as="geometry"/>
                </mxCell>
                <mxCell id="39" value="" style="edgeStyle=none;html=1;" parent="1" source="36" target="38" edge="1">
                    <mxGeometry relative="1" as="geometry"/>
                </mxCell>
                <mxCell id="36" value="检查 GE Object 是否有效" style="whiteSpace=wrap;html=1;rounded=0;" parent="1" vertex="1">
                    <mxGeometry x="-250" y="190" width="170" height="60" as="geometry"/>
                </mxCell>
                <mxCell id="41" value="" style="edgeStyle=none;html=1;" parent="1" source="38" target="40" edge="1">
                    <mxGeometry relative="1" as="geometry"/>
                </mxCell>
                <mxCell id="38" value="创建&amp;nbsp;FGameplayEffectSpec 对象" style="whiteSpace=wrap;html=1;rounded=0;" parent="1" vertex="1">
                    <mxGeometry x="-287.5" y="330" width="245" height="60" as="geometry"/>
                </mxCell>
                <mxCell id="40" value="收集所需信息" style="whiteSpace=wrap;html=1;rounded=0;" parent="1" vertex="1">
                    <mxGeometry x="-225" y="470" width="120" height="60" as="geometry"/>
                </mxCell>
                <mxCell id="45" value="" style="edgeStyle=none;html=1;" parent="1" source="42" target="44" edge="1">
                    <mxGeometry relative="1" as="geometry"/>
                </mxCell>
                <mxCell id="42" value="通过 FindStackableActiveGameplayEffect 检查堆叠状态" style="whiteSpace=wrap;html=1;rounded=0;" parent="1" vertex="1">
                    <mxGeometry x="1560" y="880" width="310" height="55.57" as="geometry"/>
                </mxCell>
                <mxCell id="47" value="" style="edgeStyle=none;html=1;" parent="1" source="44" target="46" edge="1">
                    <mxGeometry relative="1" as="geometry"/>
                </mxCell>
                <mxCell id="51" value="" style="edgeStyle=none;html=1;" parent="1" source="44" target="50" edge="1">
                    <mxGeometry relative="1" as="geometry"/>
                </mxCell>
                <mxCell id="44" value="是否堆叠" style="rhombus;whiteSpace=wrap;html=1;rounded=0;" parent="1" vertex="1">
                    <mxGeometry x="1675" y="1003.355" width="80" height="80" as="geometry"/>
                </mxCell>
                <mxCell id="49" value="" style="edgeStyle=none;html=1;" parent="1" source="46" target="48" edge="1">
                    <mxGeometry relative="1" as="geometry"/>
                </mxCell>
                <mxCell id="46" value="更新堆叠计数" style="whiteSpace=wrap;html=1;rounded=0;" parent="1" vertex="1">
                    <mxGeometry x="2057.5" y="1013.355" width="120" height="60" as="geometry"/>
                </mxCell>
                <mxCell id="56" style="edgeStyle=none;html=1;exitX=0;exitY=0.5;exitDx=0;exitDy=0;entryX=1;entryY=0.5;entryDx=0;entryDy=0;" parent="1" source="48" target="52" edge="1">
                    <mxGeometry relative="1" as="geometry"/>
                </mxCell>
                <mxCell id="48" value="其他处理&lt;div&gt;比如：刷新持续时间、重置周期计数器&lt;/div&gt;" style="whiteSpace=wrap;html=1;rounded=0;" parent="1" vertex="1">
                    <mxGeometry x="2000" y="1270" width="235" height="60" as="geometry"/>
                </mxCell>
                <mxCell id="53" value="" style="edgeStyle=none;html=1;" parent="1" source="50" target="52" edge="1">
                    <mxGeometry relative="1" as="geometry"/>
                </mxCell>
                <mxCell id="50" value="&lt;div style=&quot;text-align: left;&quot;&gt;&lt;span style=&quot;background-color: transparent;&quot;&gt;创建&amp;nbsp;&lt;/span&gt;&lt;span style=&quot;background-color: transparent; text-align: center;&quot;&gt;FActiveGameplayEffect 实例&lt;/span&gt;&lt;/div&gt;" style="whiteSpace=wrap;html=1;rounded=0;" parent="1" vertex="1">
                    <mxGeometry x="1622.5" y="1140" width="185" height="60" as="geometry"/>
                </mxCell>
                <mxCell id="58" value="" style="edgeStyle=none;html=1;" parent="1" source="52" target="57" edge="1">
                    <mxGeometry relative="1" as="geometry"/>
                </mxCell>
                <mxCell id="52" value="捕获目标当前状态（标签、属性），计算修饰器数值" style="whiteSpace=wrap;html=1;rounded=0;" parent="1" vertex="1">
                    <mxGeometry x="1632.5" y="1270" width="165" height="60" as="geometry"/>
                </mxCell>
                <mxCell id="60" value="" style="edgeStyle=none;html=1;" parent="1" source="57" target="59" edge="1">
                    <mxGeometry relative="1" as="geometry"/>
                </mxCell>
                <mxCell id="57" value="构建&amp;nbsp;FGameplayEffectModifiedAttribute 列表" style="whiteSpace=wrap;html=1;rounded=0;" parent="1" vertex="1">
                    <mxGeometry x="1572.5" y="1410" width="285" height="60" as="geometry"/>
                </mxCell>
                <mxCell id="62" value="" style="edgeStyle=none;html=1;" parent="1" source="59" target="61" edge="1">
                    <mxGeometry relative="1" as="geometry"/>
                </mxCell>
                <mxCell id="59" value="设置持续时间和周期" style="rounded=0;whiteSpace=wrap;html=1;" parent="1" vertex="1">
                    <mxGeometry x="1655" y="1550" width="120" height="60" as="geometry"/>
                </mxCell>
                <mxCell id="64" value="" style="edgeStyle=none;html=1;" parent="1" source="61" target="63" edge="1">
                    <mxGeometry relative="1" as="geometry"/>
                </mxCell>
                <mxCell id="65" value="是堆叠" style="edgeLabel;html=1;align=center;verticalAlign=middle;resizable=0;points=[];" parent="64" vertex="1" connectable="0">
                    <mxGeometry x="-0.0722" y="-4" relative="1" as="geometry">
                        <mxPoint as="offset"/>
                    </mxGeometry>
                </mxCell>
                <mxCell id="67" value="" style="edgeStyle=none;html=1;" parent="1" source="61" target="66" edge="1">
                    <mxGeometry relative="1" as="geometry"/>
                </mxCell>
                <mxCell id="68" value="不是堆叠" style="edgeLabel;html=1;align=center;verticalAlign=middle;resizable=0;points=[];" parent="67" vertex="1" connectable="0">
                    <mxGeometry x="0.0333" y="2" relative="1" as="geometry">
                        <mxPoint as="offset"/>
                    </mxGeometry>
                </mxCell>
                <mxCell id="61" value="是否是堆叠GE" style="rhombus;whiteSpace=wrap;html=1;rounded=0;" parent="1" vertex="1">
                    <mxGeometry x="1675" y="1680" width="80" height="80" as="geometry"/>
                </mxCell>
                <mxCell id="75" style="edgeStyle=none;html=1;exitX=0.5;exitY=1;exitDx=0;exitDy=0;entryX=1;entryY=0.5;entryDx=0;entryDy=0;" parent="1" source="63" target="73" edge="1">
                    <mxGeometry relative="1" as="geometry">
                        <Array as="points">
                            <mxPoint x="1947" y="2070"/>
                        </Array>
                    </mxGeometry>
                </mxCell>
                <mxCell id="63" value="触发&amp;nbsp;OnStackCountChange 事件" style="whiteSpace=wrap;html=1;rounded=0;" parent="1" vertex="1">
                    <mxGeometry x="1815" y="1690" width="265" height="60" as="geometry"/>
                </mxCell>
                <mxCell id="74" style="edgeStyle=none;html=1;exitX=0.5;exitY=1;exitDx=0;exitDy=0;entryX=0.5;entryY=0;entryDx=0;entryDy=0;" parent="1" source="66" target="73" edge="1">
                    <mxGeometry relative="1" as="geometry"/>
                </mxCell>
                <mxCell id="82" style="edgeStyle=none;html=1;exitX=1;exitY=0.5;exitDx=0;exitDy=0;entryX=0;entryY=0.5;entryDx=0;entryDy=0;" edge="1" parent="1" source="66" target="81">
                    <mxGeometry relative="1" as="geometry"/>
                </mxCell>
                <mxCell id="66" value="触发&amp;nbsp;InternalOnActiveGameplayEffectAdded 事件" style="whiteSpace=wrap;html=1;rounded=0;" parent="1" vertex="1">
                    <mxGeometry x="1552.5" y="1850" width="325" height="60" as="geometry"/>
                </mxCell>
                <mxCell id="70" value="返回 Handle" style="rounded=1;whiteSpace=wrap;html=1;" parent="1" vertex="1">
                    <mxGeometry x="802.5" y="1340" width="120" height="60" as="geometry"/>
                </mxCell>
                <mxCell id="73" value="返回&amp;nbsp;FActiveGameplayEffect 对象" style="rounded=1;whiteSpace=wrap;html=1;" parent="1" vertex="1">
                    <mxGeometry x="1577.5" y="2040" width="275" height="60" as="geometry"/>
                </mxCell>
                <mxCell id="78" style="edgeStyle=none;html=1;exitX=0.5;exitY=1;exitDx=0;exitDy=0;entryX=0.5;entryY=0;entryDx=0;entryDy=0;" parent="1" source="76" target="70" edge="1">
                    <mxGeometry relative="1" as="geometry"/>
                </mxCell>
                <mxCell id="76" value="触发&amp;nbsp;&lt;div&gt;‘OnGameplayEffectAppliedToSelf&amp;nbsp;&lt;/div&gt;&lt;div&gt;和&lt;/div&gt;&lt;div&gt;&amp;nbsp;OnGameplayEffectAppliedToTarget&lt;/div&gt;&lt;div&gt;事件&lt;/div&gt;" style="rounded=0;whiteSpace=wrap;html=1;" parent="1" vertex="1">
                    <mxGeometry x="738.75" y="1220" width="247.5" height="70" as="geometry"/>
                </mxCell>
                <mxCell id="80" style="edgeStyle=none;html=1;exitX=0.5;exitY=1;exitDx=0;exitDy=0;" edge="1" parent="1" source="79" target="4">
                    <mxGeometry relative="1" as="geometry"/>
                </mxCell>
                <mxCell id="79" value="入口" style="rounded=1;whiteSpace=wrap;html=1;" vertex="1" parent="1">
                    <mxGeometry x="277" y="-190" width="120" height="60" as="geometry"/>
                </mxCell>
                <mxCell id="86" style="edgeStyle=none;html=1;exitX=0.5;exitY=1;exitDx=0;exitDy=0;entryX=0.5;entryY=0;entryDx=0;entryDy=0;" edge="1" parent="1" source="81" target="85">
                    <mxGeometry relative="1" as="geometry"/>
                </mxCell>
                <mxCell id="81" value="InternalOnActiveGameplayEffectAdded" style="rounded=1;whiteSpace=wrap;html=1;" vertex="1" parent="1">
                    <mxGeometry x="2280" y="1680" width="260" height="70" as="geometry"/>
                </mxCell>
                <mxCell id="88" value="" style="edgeStyle=none;html=1;" edge="1" parent="1" source="85" target="87">
                    <mxGeometry relative="1" as="geometry"/>
                </mxCell>
                <mxCell id="85" value="&lt;font style=&quot;font-size: 15px;&quot;&gt;AddCustomMagnitudeExternalDependencies&lt;br&gt;&lt;/font&gt;&lt;div&gt;&lt;font style=&quot;font-size: 15px;&quot;&gt;&lt;span style=&quot;background-color: rgb(255, 255, 255); color: rgb(55, 65, 81); font-family: Inter, sans-serif; text-align: left;&quot;&gt;注册该效果依赖的外部属性，&lt;/span&gt;&lt;span style=&quot;color: rgb(55, 65, 81); font-family: Inter, sans-serif; text-align: left; background-color: rgb(255, 255, 255);&quot;&gt;当依赖属性变化时，自动重新计算效果的数值&lt;/span&gt;&lt;/font&gt;&lt;/div&gt;" style="rounded=0;whiteSpace=wrap;html=1;" vertex="1" parent="1">
                    <mxGeometry x="2230" y="1810" width="360" height="70" as="geometry"/>
                </mxCell>
                <mxCell id="90" value="" style="edgeStyle=none;html=1;" edge="1" parent="1" source="87" target="89">
                    <mxGeometry relative="1" as="geometry"/>
                </mxCell>
                <mxCell id="87" value="计算该 GE 是否会被抑制&lt;br&gt;比如：无敌状态下，新增加的扣血 GE 就应该被抑制" style="rounded=0;whiteSpace=wrap;html=1;" vertex="1" parent="1">
                    <mxGeometry x="2285" y="1945" width="250" height="55" as="geometry"/>
                </mxCell>
                <mxCell id="92" style="edgeStyle=none;html=1;exitX=1;exitY=0.5;exitDx=0;exitDy=0;entryX=0;entryY=0.5;entryDx=0;entryDy=0;" edge="1" parent="1" source="89" target="91">
                    <mxGeometry relative="1" as="geometry"/>
                </mxCell>
                <mxCell id="89" value="InhibitActiveGameplayEffect" style="rounded=0;whiteSpace=wrap;html=1;" vertex="1" parent="1">
                    <mxGeometry x="2215" y="2070" width="390" height="50" as="geometry"/>
                </mxCell>
                <mxCell id="94" value="" style="edgeStyle=none;html=1;" edge="1" parent="1" source="91" target="93">
                    <mxGeometry relative="1" as="geometry"/>
                </mxCell>
                <mxCell id="91" value="&lt;span style=&quot;color: rgb(0, 0, 0);&quot;&gt;InhibitActiveGameplayEffect&lt;/span&gt;" style="rounded=1;whiteSpace=wrap;html=1;" vertex="1" parent="1">
                    <mxGeometry x="2920" y="1680" width="250" height="50" as="geometry"/>
                </mxCell>
                <mxCell id="97" style="edgeStyle=none;html=1;exitX=1;exitY=0.5;exitDx=0;exitDy=0;entryX=0;entryY=0.5;entryDx=0;entryDy=0;" edge="1" parent="1" source="93" target="96">
                    <mxGeometry relative="1" as="geometry"/>
                </mxCell>
                <mxCell id="101" value="被抑制" style="edgeLabel;html=1;align=center;verticalAlign=middle;resizable=0;points=[];" vertex="1" connectable="0" parent="97">
                    <mxGeometry x="-0.0621" y="1" relative="1" as="geometry">
                        <mxPoint as="offset"/>
                    </mxGeometry>
                </mxCell>
                <mxCell id="99" style="edgeStyle=none;html=1;exitX=0.5;exitY=1;exitDx=0;exitDy=0;entryX=0.5;entryY=0;entryDx=0;entryDy=0;" edge="1" parent="1" source="93" target="98">
                    <mxGeometry relative="1" as="geometry"/>
                </mxCell>
                <mxCell id="102" value="没有被抑制" style="edgeLabel;html=1;align=center;verticalAlign=middle;resizable=0;points=[];" vertex="1" connectable="0" parent="99">
                    <mxGeometry x="-0.1765" relative="1" as="geometry">
                        <mxPoint as="offset"/>
                    </mxGeometry>
                </mxCell>
                <mxCell id="93" value="是否被抑制" style="rhombus;whiteSpace=wrap;html=1;rounded=1;" vertex="1" parent="1">
                    <mxGeometry x="3005" y="1795" width="80" height="80" as="geometry"/>
                </mxCell>
                <mxCell id="107" style="edgeStyle=none;html=1;exitX=0.5;exitY=1;exitDx=0;exitDy=0;entryX=1;entryY=0.5;entryDx=0;entryDy=0;" edge="1" parent="1" source="96" target="103">
                    <mxGeometry relative="1" as="geometry">
                        <Array as="points">
                            <mxPoint x="3400" y="2165"/>
                        </Array>
                    </mxGeometry>
                </mxCell>
                <mxCell id="96" value="RemoveActiveGameplayEffectGrantedTagsAndModifiers" style="rounded=0;whiteSpace=wrap;html=1;" vertex="1" parent="1">
                    <mxGeometry x="3230" y="1805" width="340" height="65" as="geometry"/>
                </mxCell>
                <mxCell id="105" style="edgeStyle=none;html=1;exitX=0.5;exitY=1;exitDx=0;exitDy=0;entryX=0.5;entryY=0;entryDx=0;entryDy=0;" edge="1" parent="1" source="98" target="103">
                    <mxGeometry relative="1" as="geometry"/>
                </mxCell>
                <mxCell id="109" style="edgeStyle=none;html=1;exitX=1;exitY=0.5;exitDx=0;exitDy=0;entryX=0;entryY=0.5;entryDx=0;entryDy=0;" edge="1" parent="1" source="98" target="108">
                    <mxGeometry relative="1" as="geometry"/>
                </mxCell>
                <mxCell id="98" value="AddActiveGameplayEffectGrantedTagsAndModifiers" style="rounded=0;whiteSpace=wrap;html=1;" vertex="1" parent="1">
                    <mxGeometry x="2892.5" y="1970" width="305" height="70" as="geometry"/>
                </mxCell>
                <mxCell id="106" style="edgeStyle=none;html=1;exitX=0.5;exitY=1;exitDx=0;exitDy=0;entryX=0.5;entryY=0;entryDx=0;entryDy=0;" edge="1" parent="1" source="103" target="104">
                    <mxGeometry relative="1" as="geometry"/>
                </mxCell>
                <mxCell id="103" value="OnInhibitionChanged" style="rounded=0;whiteSpace=wrap;html=1;" vertex="1" parent="1">
                    <mxGeometry x="2942.5" y="2140" width="205" height="50" as="geometry"/>
                </mxCell>
                <mxCell id="104" value="在&amp;nbsp;FScopedAggregatorOnDirtyBatch 析构中触发&lt;div&gt;OnDirtyRecursive 和&amp;nbsp;OnDirty&lt;/div&gt;" style="rounded=0;whiteSpace=wrap;html=1;" vertex="1" parent="1">
                    <mxGeometry x="2877.5" y="2280" width="335" height="70" as="geometry"/>
                </mxCell>
                <mxCell id="111" value="" style="edgeStyle=none;html=1;entryX=0.5;entryY=0;entryDx=0;entryDy=0;" edge="1" parent="1" source="108" target="112">
                    <mxGeometry relative="1" as="geometry">
                        <mxPoint x="3960" y="1937.5" as="targetPoint"/>
                    </mxGeometry>
                </mxCell>
                <mxCell id="108" value="&lt;span style=&quot;color: rgb(0, 0, 0);&quot;&gt;AddActiveGameplayEffectGrantedTagsAndModifiers&lt;/span&gt;" style="rounded=1;whiteSpace=wrap;html=1;" vertex="1" parent="1">
                    <mxGeometry x="3800" y="1805" width="320" height="55" as="geometry"/>
                </mxCell>
                <mxCell id="112" value="" style="rounded=0;whiteSpace=wrap;html=1;" vertex="1" parent="1">
                    <mxGeometry x="3900" y="1940" width="120" height="60" as="geometry"/>
                </mxCell>
            </root>
        </mxGraphModel>
    </diagram>
</mxfile>